<?xml version="1.0" standalone="no"?>
<!DOCTYPE svg PUBLIC "-//W3C//DTD SVG 20010904//EN"
 "http://www.w3.org/TR/2001/REC-SVG-20010904/DTD/svg10.dtd">

<svg version="1.0" xmlns="http://www.w3.org/2000/svg"
 width="661.000000pt" height="655.000000pt" viewBox="0 0 661.000000 655.000000"
 preserveAspectRatio="xMidYMid meet">
 <style>
 #color1 {
  stop-color: #ff7300
}
#color2 {
  stop-color: #fed430
}
 </style>
 <linearGradient id="lg">
    <stop id="color1" offset="0" />
    <stop id="color2" offset="1" />
  </linearGradient>
<g transform="translate(0.000000,655.000000) scale(0.100000,-0.100000)"
fill="url(#lg)" stroke="none">
<path d="M3103 6504 c-293 -64 -527 -226 -694 -481 -199 -305 -220 -720 -53
-1058 63 -126 118 -195 316 -392 l173 -173 190 190 189 189 -177 179 c-158
160 -181 187 -211 254 -85 183 -71 370 41 540 54 82 107 129 195 174 196 99
417 78 586 -56 56 -43 116 -150 151 -265 27 -87 29 -224 5 -305 -41 -140 -28
-125 -808 -907 -402 -403 -734 -733 -738 -733 -4 0 -114 105 -246 234 -286
281 -377 346 -571 411 l-53 17 370 372 c274 274 372 379 377 401 4 17 8 35 10
40 1 6 -4 47 -12 90 -19 104 -21 316 -3 429 13 84 13 89 -5 102 -10 8 -25 14
-34 14 -18 0 -1809 -1783 -1868 -1860 -226 -292 -267 -754 -99 -1105 58 -120
134 -225 225 -310 41 -38 446 -440 900 -892 455 -453 833 -823 842 -823 8 0
24 6 34 14 18 13 18 18 4 102 -17 111 -15 324 4 429 8 43 13 84 12 90 -2 5 -6
24 -10 40 -5 22 -103 127 -376 401 l-370 370 43 13 c73 22 204 87 285 143 47
32 170 144 311 282 l233 230 287 -287 287 -287 190 190 190 190 -287 287 -288
288 744 745 c805 807 818 821 891 1002 67 164 80 234 80 423 0 147 -3 182 -24
260 -109 415 -421 713 -839 800 -91 19 -312 18 -399 -1z m-1881 -2695 c29 -6
87 -27 128 -46 68 -33 96 -56 303 -262 l227 -226 -207 -212 c-283 -288 -359
-333 -557 -333 -166 0 -268 43 -379 159 -176 185 -214 400 -111 617 42 89 155
214 228 251 112 58 248 77 368 52z"/>
<path d="M4476 5751 c-15 -17 -15 -25 -1 -106 20 -114 19 -284 -1 -408 -27
-158 -49 -125 374 -549 302 -303 362 -368 346 -374 -125 -41 -239 -98 -332
-166 -31 -22 -159 -143 -285 -267 l-227 -226 -288 288 -287 287 -190 -190
-190 -190 288 -288 287 -287 -740 -740 c-495 -495 -757 -763 -790 -811 -87
-125 -144 -260 -181 -429 -17 -76 -17 -311 -1 -390 92 -431 389 -744 807 -851
206 -52 435 -34 645 52 220 89 421 272 535 487 86 162 124 317 125 508 0 190
-37 340 -126 510 -62 117 -139 211 -321 391 l-148 148 -190 -190 -189 -189
170 -173 c223 -227 264 -305 265 -493 0 -164 -42 -266 -157 -382 -115 -117
-256 -171 -414 -160 -108 8 -187 35 -273 93 -79 54 -128 127 -174 259 -24 69
-27 95 -27 190 0 122 17 185 75 281 21 34 288 308 760 780 l729 729 237 -237
c287 -285 366 -342 571 -412 l63 -22 -360 -352 c-267 -262 -365 -365 -382
-399 l-23 -47 17 -115 c21 -140 21 -298 2 -406 -13 -71 -12 -82 1 -103 9 -14
23 -22 34 -20 26 4 1802 1764 1867 1850 66 86 135 226 169 343 22 75 27 116
32 248 5 181 -5 266 -50 402 -56 172 -162 335 -292 448 -39 34 -440 430 -891
880 -451 449 -827 817 -836 817 -9 0 -23 -8 -33 -19z m1158 -1946 c111 -29
150 -53 239 -143 46 -48 96 -110 110 -137 108 -215 73 -445 -97 -631 -105
-115 -222 -164 -389 -164 -105 0 -210 31 -291 85 -28 19 -147 130 -264 248
l-213 213 223 220 c187 184 235 226 294 257 124 64 267 83 388 52z"/>
</g>
</svg>
